# AST/ASF file generated using VICON BodyLanguage
# -----------------------------------------------
:version 1.10
:name VICON
:units
  mass 1.0
  length 0.45
  angle deg
:documentation
   .ast/.asf automatically generated from VICON data using
   VICON BodyBuilder and BodyLanguage model FoxedUp or BRILLIANT.MOD
:root
   order TX TY TZ RX RY RZ
   axis XYZ
   position 0 0 0  
   orientation 0 0 0 
:bonedata
  begin
     id 1 
     name lhipjoint
     direction 0.623529 -0.717805 0.309788 
     length 2.23224 
     axis 0 0 0  XYZ
  end
  begin
     id 2 
     name lfemur
     direction 0.34202 -0.939693 0  
     length 7.11402  
     axis 0 0 20  XYZ
    dof rx ry rz
    limits (-160.0 20.0)
           (-70.0 70.0)
           (-60.0 70.0)
  end
  begin
     id 3 
     name ltibia
     direction 0.34202 -0.939693 0   
     length 6.78496   
     axis 0 0 20   XYZ
    dof rx
    limits (-10.0 170.0)
  end
  begin
     id 4 
     name lfoot
     direction 0.125078 -0.343648 0.930732   
     length 1.84054   
     axis -90 7.62852e-016 20   XYZ
    dof rx rz
    limits (-45.0 90.0)
           (-70.0 20.0)
  end
  begin
     id 5 
     name ltoes
     direction 1.53565e-011 -4.21893e-011 1   
     length 0.916474   
     axis -90 7.62852e-016 20   XYZ
    dof rx
    limits (-90.0 20.0)
  end
  begin
     id 6 
     name rhipjoint
     direction -0.564688 -0.757748 0.327026   
     length 2.11457  
     axis 0 0 0  XYZ 
  end
  begin
     id 7 
     name rfemur
     direction -0.34202 -0.939693 0   
     length 7.14609   
     axis 0 0 -20   XYZ
    dof rx ry rz
    limits (-160.0 20.0)
           (-70.0 70.0)
           (-70.0 60.0)
  end
  begin
     id 8 
     name rtibia
     direction -0.34202 -0.939693 0   
     length 6.78101   
     axis 0 0 -20   XYZ
    dof rx
    limits (-10.0 170.0)
 end
 begin
     id 9 
     name rfoot
     direction -0.0992671 -0.272734 0.956955   
     length 1.96168  
     axis -90 -7.62852e-016 -20   XYZ
    dof rx rz
    limits (-45.0 90.0)
           (-20.0 70.0)
  end
  begin
     id 10 
     name rtoes
     direction -1.5356e-011 -4.21891e-011 1   
     length 0.982933   
     axis -90 -7.62852e-016 -20   XYZ
    dof rx
    limits (-90.0 20.0)
  end
  begin
     id 11 
     name lowerback
     direction -0.00596953 0.998668 0.0512524   
     length 1.87557   
     axis 0 0 0   XYZ
    dof rx ry rz
    limits (-20.0 45.0)
           (-30.0 30.0)
           (-30.0 30.0)
  end
  begin
     id 12 
     name upperback
     direction 0.00584879 0.999652 0.0257308   
     length 1.87883   
     axis 0 0 0   XYZ
    dof rx ry rz
    limits (-20.0 45.0)
           (-30.0 30.0)
           (-30.0 30.0)
  end
  begin
     id 13 
     name thorax
     direction 0.010104 0.999947 0.00178881   
     length 1.87779   
     axis 0 0 0   XYZ
    dof rx ry rz
    limits (-20.0 45.0)
           (-30.0 30.0)
           (-30.0 30.0)
  end
  begin
     id 14 
     name lowerneck
     direction 0.0120771 0.995934 -0.0892773   
     length 1.40897   
     axis 0 0 0   XYZ
    dof rx ry rz
    limits (-20.0 45.0)
           (-30.0 30.0)
           (-30.0 30.0)
  end
  begin
     id 15 
     name upperneck
     direction -0.030568 0.999465 -0.0116366   
     length 1.38661   
     axis 0 0 0   XYZ
    dof rx ry rz
    limits (-20.0 45.0)
           (-30.0 30.0)
           (-30.0 30.0)
  end
  begin
     id 16
     name head
     direction -0.0170715 0.999854 -0.00104426  
     length 1.47052  
     axis 0 0 0   XYZ
    dof rx ry rz
    limits (-20.0 45.0)
           (-30.0 30.0)
           (-30.0 30.0)
  end
  begin
     id 17 
     name lclavicle
     direction 0.977763 0.206143 0.038532  
     length 3.02424  
     axis 0 0 0   XYZ
    dof ry rz
    limits (-20.0 10.0)
           (0.0 20.0)
  end
  begin
     id 18 
     name lhumerus
     direction 1 -4.48965e-011 -2.62654e-027   
     length 4.68382   
     axis 180 -30 -90   XYZ
    dof rx ry rz
    limits (-60.0 90.0)
           (-90.0 90.0)
           (-90.0 90.0)
  end
  begin
     id 19
     name lradius
     direction 1 -4.48973e-011 -1.54954e-027   
     length 2.98124   
     axis 180 -30 -90   XYZ
    dof rx
    limits (-10.0 170.0)
  end
  begin
     id 20
     name lwrist
     direction 1 -4.48959e-011 7.20928e-028   
     length 1.49062   
     axis -5.52449e-016 90 90   XYZ
    dof ry
    limits (-180.0 0.0)
 end
  begin
     id 21 
     name lhand
     direction 1 -4.48971e-011 1.44186e-027   
     length 0.707595   
     axis -9.20027e-016 90 90   XYZ
    dof rx rz
    limits (-90.0 90.0)
           (-45.0 45.0)
  end
  begin
     id 22 
     name lfingers
     direction 1 -4.48985e-011 2.88371e-027   
     length 0.570481   
     axis -1.84005e-015 90 90   XYZ
    dof rx
    limits (0.0 90.0)
  end
  begin
     id 23
     name lthumb
     direction 0.707107 -6.34929e-011 0.707107   
     length 0.819101   
     axis -90 45 2.85299e-015   XYZ
    dof rx rz
    limits (-45.0 45.0)
           (-45.0 45.0)
  end
  begin
     id 24 
     name rclavicle
     direction -0.958661 0.284411 -0.00895327   
     length 3.11921  
     axis 0 0 0   XYZ 
    dof ry rz
    limits (-10.0 20.0)
           (-20.0 0.0)
  end
  begin
     id 25 
     name rhumerus
     direction -1 -4.48963e-011 -4.22193e-027  
     length 4.75876   
     axis 180 30 90   XYZ
    dof rx ry rz
    limits (-90.0 60.0)
           (-90.0 90.0)
           (-90.0 90.0)
  end
  begin
     id 26 
     name rradius
     direction -1 -4.48968e-011 -1.07616e-027   
     length 2.93293   
     axis 180 30 90   XYZ
    dof rx
    limits (-10.0 170.0)
  end
  begin
     id 27 
     name rwrist
     direction -1 -4.48965e-011 7.20928e-028   
     length 1.46647   
     axis -5.52449e-016 -90 -90   XYZ
    dof ry
    limits (-180.0 0.0)
  end
  begin
     id 28
     name rhand
     direction -1 -4.48971e-011 1.44186e-027   
     length 0.831748   
     axis -9.20027e-016 -90 -90   XYZ
    dof rx rz
    limits (-90.0 90.0)
           (-45.0 45.0)
  end
  begin
     id 29
     name rfingers
     direction -1 -4.48961e-011 2.88371e-027   
     length 0.670577   
     axis -1.84005e-015 -90 -90   XYZ
    dof rx
    limits (0.0 90.0)
  end
  begin
     id 30
     name rthumb
     direction -0.707107 -6.34929e-011 0.707107   
     length 0.962818   
     axis -90 -45 -2.85299e-015   XYZ
    dof rx rz
    limits (-45.0 45.0)
           (-45.0 45.0)
  end
:hierarchy
  begin
    root lhipjoint rhipjoint lowerback
    lhipjoint lfemur
    lfemur ltibia
    ltibia lfoot
    lfoot ltoes
    rhipjoint rfemur
    rfemur rtibia
    rtibia rfoot
    rfoot rtoes
    lowerback upperback
    upperback thorax
    thorax lowerneck lclavicle rclavicle
    lowerneck upperneck
    upperneck head
    lclavicle lhumerus
    lhumerus lradius
    lradius lwrist
    lwrist lhand lthumb
    lhand lfingers
    rclavicle rhumerus
    rhumerus rradius
    rradius rwrist
    rwrist rhand rthumb
    rhand rfingers
  end

#!OML:ASF E:\id_vita\Project 1\Capture day 1\Session 1\Female.ASF
:FULLY-SPECIFIED
:DEGREES
323
root 29.7003 15.4365 1.75083 -122.317 -81.822 139.112
lowerback 0.723916 0.453458 -7.97527
upperback -1.98369 0.365984 -1.45303
thorax -2.51013 0.302455 2.9536
lowerneck 2.74268 1.36539 -1.72043
upperneck -10.8411 1.99122 3.91756
head -4.10937 0.819512 1.53316
rclavicle -1.12313e-014 1.38155e-014
rhumerus -71.494 -28.6251 -53.0032
rradius 20.9459
rwrist 18.6987
rhand -9.53818 5.7566
rfingers 7.12502
rthumb 16.4283 -23.5677
lclavicle -1.12313e-014 1.38155e-014
lhumerus -120.225 25.3671 -46.3661
lradius 12.5441
lwrist -114.326
lhand -3.48678 25.9062
lfingers 7.12502
lthumb 22.2467 54.6458
rfemur -61.3206 3.02674 9.10726
rtibia 51.8398
rfoot -7.48397 -16.9499
rtoes -12.4121
lfemur -30.8548 -0.341853 -32.2762
ltibia 50.504
lfoot -25.235 27.5165
ltoes -0.0177114
324
root 29.7735 15.4936 1.75533 -123.702 -81.7889 140.425
lowerback 0.87291 0.49765 -7.68554
upperback -2.02148 0.408565 -1.6009
thorax -2.63313 0.32055 2.63662
lowerneck 3.00525 1.33845 -1.56198
upperneck -11.1514 1.97423 3.97615
head -4.27093 0.793915 1.5286
rclavicle 6.73383e-015 -1.23246e-014
rhumerus -71.4019 -28.1599 -53.663
rradius 21.3067
rwrist 17.9617
rhand -9.40827 5.3555
rfingers 7.12502
rthumb 16.5534 -23.9585
lclavicle 6.73383e-015 -1.23246e-014
lhumerus -121.377 22.5032 -50.6966
lradius 12.8861
lwrist -118.379
lhand -3.62584 26.1327
lfingers 7.12502
lthumb 22.1132 54.8881
rfemur -61.2332 2.75131 9.48815
rtibia 54.3774
rfoot -9.82318 -16.4745
rtoes -7.03387
lfemur -30.8504 -0.478239 -32.0908
ltibia 50.1059
lfoot -25.082 27.1285
ltoes 1.71501
325
root 29.8401 15.5312 1.75782 -125.443 -81.7082 142.114
lowerback 0.856987 0.525794 -7.55585
upperback -1.97434 0.454793 -1.59207
thorax -2.57788 0.338722 2.57255
lowerneck 3.01978 1.32634 -1.72447
upperneck -11.2444 1.95452 4.04718
head -4.31104 0.785844 1.58418
rclavicle 7.47927e-015 -1.87852e-014
rhumerus -70.946 -27.4996 -54.4496
rradius 21.6843
rwrist 17.1224
rhand -9.3807 5.16316
rfingers 7.12502
rthumb 16.5799 -24.1486
lclavicle 7.47927e-015 -1.87852e-014
lhumerus -123.058 18.6999 -56.5462
lradius 13.5415
lwrist -124.289
lhand -3.98071 25.0379
lfingers 7.12502
lthumb 21.7725 53.8333
rfemur -61.1267 2.48165 9.95591
rtibia 56.7063
rfoot -10.659 -16.2349
rtoes -6.4661
lfemur -30.8573 -0.632378 -31.8609
ltibia 49.7634
lfoot -25.2027 26.5292
ltoes 4.90765
326
root 29.9015 15.5619 1.75626 -127.479 -81.6383 144.149
lowerback 0.772456 0.577401 -7.53009
upperback -1.95642 0.539122 -1.46741
thorax -2.52072 0.380641 2.68524
lowerneck 3.20687 1.31506 -1.92848
upperneck -11.5674 1.92577 4.02477
head -4.46795 0.77486 1.61867
rclavicle -7.95139e-015 1.36167e-014
rhumerus -70.3583 -26.8224 -55.0589
rradius 21.956
rwrist 16.3329
rhand -9.30152 4.9484
rfingers 7.12502
rthumb 16.6562 -24.3569
lclavicle -7.95139e-015 1.36167e-014
lhumerus -123.146 17.0057 -58.0306
lradius 13.8182
lwrist -125.404
lhand -3.82113 25.515
lfingers 7.12502
lthumb 21.9257 54.2925
rfemur -60.9803 2.26769 10.4652
rtibia 58.8914
rfoot -10.8309 -16.3121
rtoes -5.29322
lfemur -30.9175 -0.756689 -31.5947
ltibia 49.4226
lfoot -25.1328 26.3185
ltoes 7.05553
327
root 29.9744 15.594 1.74878 -129.219 -81.4914 145.849
lowerback 0.537172 0.668731 -7.49592
upperback -1.71666 0.698147 -1.51292
thorax -2.15369 0.441689 2.61889
lowerneck 3.3039 1.33653 -1.93875
upperneck -12.1705 1.96522 4.11275
head -4.71213 0.777284 1.65645
rclavicle -8.94531e-016 -2.67365e-014
rhumerus -69.7166 -26.9633 -55.2286
rradius 22.0377
rwrist 16.2508
rhand -9.20685 4.96928
rfingers 7.12502
rthumb 16.7473 -24.3284
lclavicle -8.94531e-016 -2.67365e-014
lhumerus -123.513 15.6736 -60.0963
lradius 14.072
lwrist -126.833
lhand -3.83182 25.4418
lfingers 7.12502
lthumb 21.9155 54.2205
rfemur -60.7079 2.15461 10.854
rtibia 60.8053
rfoot -11.0408 -16.5202
rtoes -5.70688
lfemur -31.0472 -0.745652 -31.4134
ltibia 49.1444
lfoot -24.8831 26.3361
ltoes 7.97034
328
root 30.0477 15.6237 1.74085 -130.664 -81.4046 147.433
lowerback 0.730201 0.756696 -7.44475
upperback -1.97932 0.780115 -1.53242
thorax -2.54284 0.499178 2.56287
lowerneck 3.55872 1.33329 -1.90746
upperneck -12.6802 2.00161 4.30846
head -4.43666 0.762069 1.54492
rclavicle -4.72114e-016 -2.24627e-014
rhumerus -69.6191 -26.3481 -55.6799
rradius 22.4764
rwrist 15.6733
rhand -9.36036 5.09472
rfingers 7.12502
rthumb 16.5995 -24.2154
lclavicle -4.72114e-016 -2.24627e-014
lhumerus -122.907 14.6781 -60.8691
lradius 14.1545
lwrist -126.907
lhand -3.50038 25.6021
lfingers 7.12502
lthumb 22.2337 54.3432
rfemur -60.5119 1.96486 11.2836
rtibia 62.4288
rfoot -10.8022 -16.8374
rtoes -6.79716
lfemur -31.354 -0.79124 -31.1821
ltibia 48.8315
lfoot -24.489 26.3447
ltoes 8.57277
329
root 30.1165 15.652 1.73172 -131.893 -81.3453 148.807
lowerback 0.606983 0.805369 -7.32146
upperback -2.06645 0.851707 -1.57267
thorax -2.56787 0.534111 2.45104
lowerneck 3.66856 1.27474 -1.9596
upperneck -12.7951 1.93414 4.43349
head -4.48949 0.720867 1.59525
rclavicle 1.39149e-014 1.86858e-014
rhumerus -69.137 -25.6226 -56.6854
rradius 23.0823
rwrist 14.6919
rhand -9.71051 5.02484
rfingers 7.12502
rthumb 16.2624 -24.3132
lclavicle 1.39149e-014 1.86858e-014
lhumerus -122.339 14.3022 -60.8515
lradius 14.1747
lwrist -126.193
lhand -3.06358 26.1274
lfingers 7.12502
lthumb 22.6529 54.8179
rfemur -60.3182 1.6914 11.8048
rtibia 63.8559
rfoot -9.09834 -17.3515
rtoes -10.5091
lfemur -31.6166 -0.892222 -30.9376
ltibia 48.4047
lfoot -23.9298 26.3445
ltoes 8.95964
330
root 30.1748 15.6914 1.72423 -134.198 -81.104 150.899
lowerback 0.592711 0.966385 -7.20748
upperback -1.91586 1.07789 -1.64271
thorax -2.42094 0.636359 2.31012
lowerneck 3.67942 1.21347 -1.98534
upperneck -12.9468 1.86752 4.58547
head -4.53675 0.676585 1.65038
rclavicle 2.32578e-014 2.78299e-015
rhumerus -68.4333 -25.2453 -57.53
rradius 23.5812
rwrist 13.7545
rhand -10.0198 4.67264
rfingers 7.12502
rthumb 15.9646 -24.6895
lclavicle 2.32578e-014 2.78299e-015
lhumerus -122.211 13.8544 -61.5545
lradius 14.2562
lwrist -126.457
lhand -2.99906 26.4238
lfingers 7.12502
lthumb 22.7149 55.1068
rfemur -59.7859 1.53275 12.4438
rtibia 65.0691
rfoot -6.42727 -17.2285
rtoes -14.9119
lfemur -31.4077 -0.759479 -30.7447
ltibia 47.9158
lfoot -23.6056 26.364
ltoes 9.50825
331
root 30.2213 15.7385 1.71829 -136.347 -80.55 152.717
lowerback 0.781575 1.18974 -7.35122
upperback -1.90004 1.3525 -1.72385
thorax -2.53926 0.777561 2.29346
lowerneck 3.84405 1.17911 -1.89278
upperneck -13.1098 1.82217 4.51062
head -4.61154 0.64957 1.61421
rclavicle -1.49585e-014 2.18663e-015
rhumerus -67.9537 -24.9003 -57.8326
rradius 23.9285
rwrist 13.1196
rhand -10.1139 4.47689
rfingers 7.12502
rthumb 15.874 -24.8924
lclavicle -1.49585e-014 2.18663e-015
lhumerus -121.738 13.5801 -61.5255
lradius 14.2278
lwrist -125.938
lhand -2.88208 26.5122
lfingers 7.12502
lthumb 22.8271 55.1813
rfemur -58.9187 1.72253 12.4156
rtibia 66.4265
rfoot -6.98733 -15.4777
rtoes -12.0334
lfemur -30.9028 -0.471699 -30.8157
ltibia 47.2899
lfoot -23.3134 26.5747
ltoes 10.0797
332
root 30.2907 15.7786 1.7036 -139.623 -80.3672 156.117
lowerback 0.475214 1.30839 -7.14508
upperback -1.80379 1.55471 -1.62122
thorax -2.28157 0.867446 2.28676
lowerneck 3.759 1.21057 -1.93368
upperneck -13.3453 1.85451 4.45141
head -4.67019 0.665752 1.60244
rclavicle -1.32689e-014 2.38542e-015
rhumerus -67.0642 -24.7878 -58.1322
rradius 24.3021
rwrist 12.6963
rhand -10.1902 4.23047
rfingers 7.12502
rthumb 15.8005 -25.1447
lclavicle -1.32689e-014 2.38542e-015
lhumerus -121.457 13.9223 -60.5974
lradius 14.1498
lwrist -124.308
lhand -2.44021 26.3455
lfingers 7.12502
lthumb 23.2511 54.9617
rfemur -58.6183 2.15983 12.7843
rtibia 67.7578
rfoot -7.23266 -14.2931
rtoes -9.56469
lfemur -31.0599 -0.290782 -30.2755
ltibia 46.7244
lfoot -22.8099 26.6477
ltoes 10.6388
333
root 30.3483 15.8232 1.69868 -141.334 -80.1971 157.905
lowerback 0.442324 1.41121 -6.94266
upperback -1.94805 1.68979 -1.62216
thorax -2.41835 0.93814 2.16731
lowerneck 3.79363 1.22987 -1.98753
upperneck -13.2775 1.89011 4.56575
head -4.65784 0.680471 1.64438
rclavicle 1.70955e-014 2.04748e-014
rhumerus -66.5719 -24.0715 -58.8927
rradius 25.1095
rwrist 11.6388
rhand -10.4792 3.73958
rfingers 7.12502
rthumb 15.5221 -25.6574
lclavicle 1.70955e-014 2.04748e-014
lhumerus -120.904 14.0667 -59.9778
lradius 14.1125
lwrist -123.242
lhand -1.96038 26.0423
lfingers 7.12502
lthumb 23.7114 54.5996
rfemur -58.1073 2.07111 13.0623
rtibia 69.0275
rfoot -7.06469 -14.1773
rtoes -10.5882
lfemur -31.0562 -0.353187 -29.9901
ltibia 46.1742
lfoot -22.638 26.6458
ltoes 10.4866
